<svg width="25" height="25" viewBox="0 0 25 25" fill="none" xmlns="http://www.w3.org/2000/svg">
<path d="M7.29183 20.4796V21.8754C7.29183 22.1517 7.40158 22.4166 7.59693 22.612C7.79228 22.8073 8.05723 22.9171 8.3335 22.9171H16.6668C16.9431 22.9171 17.208 22.8073 17.4034 22.612C17.5987 22.4166 17.7085 22.1517 17.7085 21.8754V20.4796C19.292 19.5653 20.6069 18.2504 21.5212 16.6669C22.4354 15.0834 22.9168 13.2872 22.9168 11.4587C22.9168 11.1825 22.8071 10.9175 22.6117 10.7222C22.4164 10.5268 22.1514 10.4171 21.8752 10.4171C21.8561 9.77928 21.6737 9.15706 21.3454 8.60992C21.0171 8.06278 20.5539 7.60902 20.0002 7.29206C19.8674 6.3847 19.412 5.55561 18.7175 4.95678C18.023 4.35794 17.1359 4.02949 16.2189 4.03164C15.8673 4.03104 15.5171 4.07656 15.1772 4.16706C14.4603 3.48253 13.5071 3.10059 12.5158 3.10059C11.5245 3.10059 10.5713 3.48253 9.85433 4.16706C9.51452 4.07656 9.16431 4.03104 8.81266 4.03164C7.89207 4.02446 6.99997 4.35063 6.30112 4.94992C5.60226 5.54921 5.14387 6.38114 5.01058 7.29206C4.45487 7.60773 3.98961 8.06092 3.65945 8.60814C3.32929 9.15537 3.14531 9.77826 3.12516 10.4171C2.8489 10.4171 2.58394 10.5268 2.38859 10.7222C2.19324 10.9175 2.0835 11.1825 2.0835 11.4587C2.08354 13.2872 2.56488 15.0834 3.47913 16.6669C4.39338 18.2504 5.70833 19.5653 7.29183 20.4796ZM6.36475 9.02122L7.22933 8.75039L7.06266 7.81289C7.06538 7.58854 7.11227 7.36693 7.20064 7.16071C7.28901 6.95448 7.41714 6.76768 7.57772 6.61098C7.73829 6.45428 7.92815 6.33074 8.13647 6.24742C8.34479 6.16411 8.56748 6.12264 8.79183 6.12539C9.09266 6.12367 9.38939 6.19517 9.65641 6.33372L10.5002 6.80247L11.021 6.00039C11.1839 5.75762 11.404 5.55867 11.662 5.4211C11.9199 5.28353 12.2078 5.21157 12.5002 5.21157C12.7925 5.21157 13.0804 5.28353 13.3383 5.4211C13.5963 5.55867 13.8164 5.75762 13.9793 6.00039L14.5002 6.80247L15.3439 6.33372C15.6109 6.19517 15.9077 6.12367 16.2085 6.12539C16.659 6.11972 17.0938 6.29121 17.4192 6.60293C17.7445 6.91465 17.9345 7.34168 17.9481 7.79206L17.7814 8.67747L18.6356 8.96914C18.9507 9.06775 19.2291 9.25828 19.4351 9.51628C19.6412 9.77427 19.7654 10.088 19.7918 10.4171H5.2085C5.23496 10.088 5.35917 9.77427 5.5652 9.51628C5.77122 9.25828 6.04965 9.06775 6.36475 8.96914V9.02122ZM20.771 12.5004C20.5972 13.8642 20.0887 15.1638 19.2908 16.2833C18.4929 17.4029 17.4305 18.3077 16.1981 18.9171C16.0247 19.0044 15.8792 19.1385 15.778 19.3041C15.6767 19.4698 15.6238 19.6604 15.6252 19.8546V20.8337H9.37516V19.8546C9.37651 19.6604 9.32359 19.4698 9.22236 19.3041C9.12112 19.1385 8.97562 19.0044 8.80225 18.9171C7.56986 18.3077 6.50738 17.4029 5.7095 16.2833C4.91161 15.1638 4.40312 13.8642 4.22933 12.5004H20.771Z" fill="#475467"/>
</svg>
